<?xml version="1.0" encoding="utf-8"?>
<!-- Generator: Adobe Illustrator 25.0.0, SVG Export Plug-In . SVG Version: 6.00 Build 0)  -->
<svg version="1.1" id="Layer_1" xmlns="http://www.w3.org/2000/svg" xmlns:xlink="http://www.w3.org/1999/xlink" x="0px" y="0px"
	 viewBox="0 0 500 300" style="enable-background:new 0 0 500 300;" xml:space="preserve">
<style type="text/css">
	.st0{fill:#0082D1;}
	.st1{fill:#E0E0E3;}
	.st2{fill:#00ABE9;}
	.st3{fill:#FEFEFE;}
</style>
<g>
	<path class="st0" d="M258.9,253.1c-27.8,1.1-55.1-2.6-82.5-7c-14.4-5-29.5-7.7-43-15.1c-5.6-9.2-5.7-51-0.3-59.8
		c4.3-1.7,8.5-0.6,12.6,0.9c30.1,10.3,60.8,16.2,92.7,16.2c7.6,0,15.6,0.2,21.8,5.8c2.8,4.2,2.1,9,2.1,13.5
		c0.1,11.5,0.1,22.9,0,34.4C262.5,246.1,262.4,250.2,258.9,253.1z"/>
	<path class="st1" d="M135.2,171.4c-3.3,7.7-1.2,15.7-1.4,23.5c-0.4,12-0.2,24-0.3,36.1c-28.7-12.3-48.3-30.8-44.9-65.1
		c0.2-13.1,0.3-26.2,0.5-39.3c1.5-0.3,2.6,0.4,3.5,1.5c8.4,16.3,20.1,29.1,37.3,36.5c2.2,1,4.5,2.1,5.9,4.3
		C136,169.9,135.8,170.7,135.2,171.4z"/>
	<path class="st2" d="M135.2,171.4c0-0.5,0.1-1.1,0.3-1.6c0.9-5,5.2-6.6,8.8-8.9c7.8-5,16-9.4,24.1-14.8
		c-10.5-9-20.8-15.6-35.2-13.8c-10.1,1.2-20.5,0.3-30.7,0.2c-4.4,0-8.8,0.1-11.8-4c-0.6-0.6-1.1-1.2-1.7-1.8
		c-2.6-18,4.8-31.8,18.4-42.8c15.9-10,32.2-18.9,50.4-24.2c3.7-0.8,7.4-1.6,11-2.4c10.6,1.4,18.2,8.7,24.6,15.8
		c11.6,12.7,25.2,7,38.3,6.7c3.5-0.1,4-3.4,4.2-6.3c0.3-5.3,0-10.5,0.2-15.8c0.2-4-0.1-8.2,4.5-10.3c4.7-0.2,9.5-0.4,14.2-0.7
		c30.8,1.9,61.5,4.3,91,14.3c3.5,1.2,6.7,2.8,10.1,4.3c1.2,5-2.8,7.1-5.8,9.6c-5.4,4.6-11.1,8.8-16.6,13.4c-3,2.5-3.5,4.5,0.3,7
		c8.9,5.8,17.6,10.6,29,9.6c11.3-1,22.8-0.2,34.3-0.2c4.5,0,8.6,0.8,12.1,3.8c2.3,6.1,2.7,12.4,2,18.8c-0.3,15.7-8.5,26.7-21.2,34.9
		c-13,8.4-26.3,16.4-41.9,19.4c-2,0-3.7-1.1-5.5-1.8c-12.1-5.4-22.8-13.4-34.4-19.8c-14.9-8.2-29.5-4-44,1.2
		c-3.9,6.5-2.6,13.8-3,20.8c-0.2,4.1,1.6,8.8-2.7,12c-40.6-1.8-81.2-3.9-119.3-20.1C137.8,173,136.5,172.2,135.2,171.4z"/>
	<path class="st1" d="M344.4,177.4c1.1,0.6,2.2,1.1,3.3,1.7c3.2,2.1,4.1,5.2,4.2,8.8c0.4,13.6,0.2,27.2,0.1,40.8
		c-0.1,3.9-1.4,7.2-4.3,9.9c-0.5,0.6-1.1,1.1-1.6,1.7c-21.5,5.2-43,10.6-65.2,11.7c-7.3,0.5-14.6,2.2-22,1.2
		c-0.1-19.8-0.2-39.6-0.4-59.4c1.6-12.8-1.8-25.9,1.8-38.6c6,5.1,3.7,12,3.9,18.3c0.4,14.5,0.8,15.5,15.4,14.5
		c16.7-1.1,33.2-3.9,49.4-8.1C334.1,178.5,339.3,178,344.4,177.4z"/>
	<path class="st0" d="M347.7,238.5c0-19.8,0-39.6,0-59.4c12.3-4.8,24.4-10.2,35.7-17c13.6-8.1,23.5-19.5,27.8-35.1
		c0.2,10.5,0.4,21,0.6,31.5c-0.1,5.2-0.6,10.5-0.2,15.7c1.2,18.8-7.4,32.6-21.8,43.5C377.1,227.2,363,234.1,347.7,238.5z"/>
	<path class="st3" d="M409.2,108.2c-8.4,0-16.8-0.3-25.1,0.2c-22.1,1.3-43.7,1.2-61.4-16.4c10.4-8.4,21.8-17.7,33.1-26.9
		c11.7,2.6,21.4,9.2,31.3,15.4C396.4,88.3,405.7,95.9,409.2,108.2z"/>
	<path class="st3" d="M240.6,47.2c0,9.9-0.2,19.8,0.1,29.7c0.2,5.3-1.8,7-7,7.1c-8,0.2-16.1,1.1-24.1,1.9c-3.6,0.4-6.6-0.1-9.4-2.6
		c-10.4-8.8-20.9-17.4-31.4-26.1C192.2,49.9,216.4,48.5,240.6,47.2z"/>
	<path class="st3" d="M90.7,128.5c18.8-0.1,37.7-0.1,56.5-0.2c3.1,0,6.1,0,8.4,2.8c5.7,6.8,13.3,10.7,23.5,13.9
		c-15.5,8.9-29.6,16.9-43.6,24.9C113.8,163.3,97.8,150.7,90.7,128.5z"/>
	<path class="st3" d="M250,145.2c-23.4-1.6-46.8-2-69.1-10.1c-4.6-1.7-9.3-3.7-13.3-6.4c-9.5-6.3-9.3-14.1,0.3-20.5
		c8.1-5.4,17.4-8.1,26.9-10c42.7-8.6,85.1-8.9,126.9,4.8c7.8,2.5,17.6,5.6,17.8,15.4c0.2,10.5-10.2,13.1-18.1,16.1
		C298.3,143.3,273.9,143.7,250,145.2z"/>
	<path class="st3" d="M344.4,177.4c-0.7,2.5-2.6,3-4.8,3.7c-22.7,6.5-45.7,10.5-69.4,11.1c-8,0.2-10.3-2.7-9.9-10.2
		c0.5-8.9,0-17.9,0-26.9c11.7-1.4,23.3-2.8,35-4.3c3.2-0.4,5.9,0,8.8,1.8C317.5,161,331,169.1,344.4,177.4z"/>
</g>
</svg>
