<?xml version="1.0" encoding="utf-8"?>
<!-- Generator: Adobe Illustrator 25.0.0, SVG Export Plug-In . SVG Version: 6.00 Build 0)  -->
<svg version="1.1" id="Layer_1" xmlns="http://www.w3.org/2000/svg" xmlns:xlink="http://www.w3.org/1999/xlink" x="0px" y="0px"
	 viewBox="0 0 1000 1000" style="enable-background:new 0 0 1000 1000;" xml:space="preserve">
<style type="text/css">
	.st0{fill:#FEDFD6;}
	.st1{fill:#FE7F64;}
	.st2{fill:#FE9547;}
	.st3{fill:#FE9348;}
	.st4{fill:#FE865A;}
	.st5{fill:#FE9746;}
	.st6{fill:#FE8062;}
	.st7{fill:#FE8260;}
	.st8{fill:#FE8C51;}
	.st9{fill:#FE8857;}
	.st10{fill:#FE845D;}
	.st11{fill:#FE8A54;}
	.st12{fill:#FE8E4E;}
	.st13{fill:#FE9149;}
	.st14{fill:#FE8F4C;}
	.st15{fill:#FE904B;}
	.st16{fill:#FE8B52;}
	.st17{fill:#FE825F;}
	.st18{fill:#FE8161;}
</style>
<path class="st0" d="M488.1,46.3c0-0.2,0-0.5,0-0.7c7.9,0,15.8,0,23.7,0c0,0.2,0,0.4,0,0.7c-3.4,2.7-7.4,1.1-11.1,1.4
	C496.6,47.3,492.1,49,488.1,46.3z"/>
<path class="st1" d="M164.3,951.7c-0.5,0.7-1.2,1-1.3-0.1c-0.2-1.4-0.1-2.8-0.1-4.2c0-186.6-0.4-373.2,0.2-559.8
	c0.2-84.7,28.1-159.9,83.4-224.4c43.8-51.1,98.3-85.8,162.9-104.5c0.8-0.2,1.7-0.3,2.5-0.4c1.2,1.6,0.1,3-0.5,4.3
	c-4.2,9.9-9.1,19.4-13.8,29.1c-11.7,24.1-23.2,48.4-34.8,72.5c-12.8,26.6-25.5,53.2-38.2,79.8c-12.7,26.6-25.5,53.2-38.2,79.8
	c-12.6,26.5-25.4,52.9-38,79.4c-12.7,26.6-25.5,53.2-38.2,79.8c-12.6,26.4-25.2,52.7-37.8,79.1c-2.2,4.6-4.1,9.3-6.6,13.8
	c-0.8,1.4-1,2.9-1,4.5c0,8.3-0.2,16.7,0.1,25c0.2,8.7,0.1,17.4,0.1,26.1c0.1,17.2,0.1,34.4,0,51.5c0.1,24,0.2,48-0.1,72
	c0.3,19.9,0.1,39.8,0.1,59.7c0,11.7,0.2,23.4-0.1,35.2c0.3,29.2,0.1,58.3,0.1,87.5C165,942.2,165.5,947,164.3,951.7z"/>
<path class="st2" d="M686.5,673.8c-17.3,12.3-36,22-55.4,30.4c-5.2,2.2-10.3,4.6-15.8,6c-1.7-2.5,0-4.6,1-6.7
	c2.8-6.2,5.8-12.2,8.8-18.3c11.7-24.1,23.2-48.4,34.8-72.5c13-27,25.9-54,38.8-81c12.5-26.2,25.1-52.4,37.6-78.7
	c15.9-33.4,32-66.7,47.9-100.1c10.4-21.8,21-43.5,31.1-65.4c1.2-2.5,2.2-5.3,5.2-6.4c5,13.3,8.2,27.1,10.9,41
	c2.5,12.8,4.6,25.7,5.1,38.8c-3.4,8.8-8,17.1-12.1,25.6c-11.7,24.2-23.1,48.4-34.8,72.6c-16.2,33.6-32.2,67.3-48.3,100.9
	c-9.4,19.5-18.7,39-28,58.5c-8.1,16.9-16.3,33.8-24.2,50.9C688.3,671,687.4,672.4,686.5,673.8z"/>
<path class="st3" d="M820.4,281.1c-5.8,8.4-9.2,18.1-13.8,27.1c-4.1,7.9-7.5,16.1-11.3,24.1c-8.7,18.2-17.6,36.3-26.3,54.5
	c-9.7,20.1-19.2,40.2-28.9,60.3c-9.6,20-19.1,39.9-28.7,59.9c-9.4,19.6-18.7,39.2-28.1,58.8c-9.6,20-19.1,39.9-28.7,59.9
	c-9.7,20.2-19.5,40.4-29,60.7c-2.7,5.9-5.6,11.7-8.4,17.5c-1,2-1.9,4.1-1.9,6.4c-17,6.7-34.5,11.6-52.5,14.5c-1.4-2.2,0-4.1,0.9-5.9
	c6.9-14.2,13.6-28.5,20.5-42.8c17.9-37.1,35.5-74.4,53.5-111.5c3.9-8.1,7.9-16.2,11.5-24.5c14.1-15.1,26.4-31.5,36.1-49.9
	c12-22.8,19.8-46.9,23.3-72.4c0.2-1.1,0.5-2.2,0.7-3.3c11.2-22.3,21.7-44.9,32.5-67.5c17.1-35.9,34.6-71.7,51.4-107.7
	c1-2,1.9-4.1,3.1-6c0.8-1.2,1.5-2.9,3.5-1.9c8.1,14.9,14.3,30.6,19.8,46.6C820,278.9,820.2,280,820.4,281.1z"/>
<path class="st4" d="M164.3,951.7c-1.1-1-0.7-2.4-0.7-3.6c0-32.7,0-65.4,0-98.1c3.3-4.9,5.7-10.4,8.2-15.7
	c7.6-16.4,15.5-32.6,23.3-48.9c17.6-36.6,35-73.3,52.7-109.9c9.3-19.3,18.4-38.8,27.8-58c1.6-3.3,2.6-6.9,4.7-9.9
	c0.6-0.9,1.9-3.8,3.1-0.1c0,33.1,0,66.3,0,99.4c0.2,2.7-2.2,4.1-3.2,6.2c-8,16.7-16,33.3-23.9,50c-3.8,7.9-7.5,15.8-11.3,23.7
	c-11.7,24.2-23.3,48.6-35,72.8c-12.6,26.2-25,52.5-37.6,78.6c-0.9,1.9-2.1,3.7-1.4,6C168.8,946.7,166.6,949.2,164.3,951.7z"/>
<path class="st5" d="M686.5,673.8c1-5.4,3.9-9.9,6.2-14.8c8.5-18.3,17.5-36.3,26.2-54.5c12.9-26.9,25.8-53.9,38.7-80.8
	c9.2-19.2,18.3-38.4,27.5-57.6c12.8-26.8,25.8-53.6,38.4-80.5c3.4-7.1,6.9-14.2,10.3-21.3c0.6-1.2,1-2.7,2.4-3.4
	c3.9,47-1.6,92.9-16.5,137.6c-19,56.6-50.6,104.9-94.6,145.2C713.1,654.8,700.4,665.1,686.5,673.8z"/>
<path class="st6" d="M163.7,604.2c0-3.2,0.3-6.5-0.1-9.7c-1.3-11.2,1.7-21.2,6.8-31.1c8.7-17.1,16.8-34.5,25.1-51.8
	c13.4-28,26.8-55.9,40.2-83.9c8.9-18.6,17.7-37.2,26.6-55.7c13.1-27.5,26.3-54.9,39.5-82.4c9.2-19.2,18.3-38.4,27.5-57.6
	c13.1-27.5,26.3-54.9,39.5-82.4c9.2-19.2,18.5-38.3,27.5-57.7c5.2-11.2,11.3-22.1,15.6-33.7c11.6-3.6,23.5-6.4,35.6-7.7
	c1.5,1.9,0.3,3.5-0.5,5.1c-5.9,12.2-11.6,24.5-17.5,36.7c-14.8,30.6-29.3,61.4-44.1,92.1c-4.4,9.1-8.9,18.3-13.2,27.5
	c-8.8,7.2-18,14.1-26,22.2c-13,13.2-24.1,27.8-33.3,43.9c-10.5,18.3-18.4,37.6-23.2,58.1c-1.3,5.4-2.2,10.9-3.2,16.3
	c-3.6,9-8.3,17.6-12.5,26.4c-11.7,24.3-23.2,48.6-34.9,72.9c-12.8,26.6-25.5,53.2-38.2,79.8c-10.5,22-21.3,43.9-31.5,66.1
	c-0.8,1.7-1.5,3.4-2.5,4.9C166.1,603.6,165.6,605.3,163.7,604.2z"/>
<path class="st7" d="M372.2,211.9c-0.1-3,1.4-5.4,2.6-7.9c8.4-17.7,17-35.3,25.5-52.9c12.9-26.9,25.8-53.9,38.7-80.8
	c2.5-5.2,4.9-10.4,7.4-15.7c0.6-1.3,1.3-2.5,1.1-4c7.5-2,15.3-2.4,22.9-3.2c5.9-0.6,11.8-0.8,17.7-1.1c4.2,0.1,8.5,0.2,12.7,0.3
	c1.4,1.7,0.2,3.2-0.4,4.7c-3.9,9.4-8.6,18.4-13,27.5c-11.7,24.3-23.2,48.6-34.9,72.8c-4.3,9-9,17.8-12.7,27.1
	c-15.8,5.1-31.4,10.9-45.8,19.3C386.7,202.5,379,206.5,372.2,211.9z"/>
<path class="st8" d="M661,248.4c-10.2-11.3-20.6-22.3-32.7-31.6c-2.1-1.6-4.2-3.3-6.2-5c-1.1-1.6,0-3,0.6-4.3
	c3.8-9.3,8.5-18.1,12.8-27.1c11.7-24.2,23-48.7,35-72.8c1.2-2.4,1.9-5,3.3-7.3c0.8-1.4,1.3-3.3,3.6-2.9c13.9,8.1,26.7,17.9,39,28.2
	c1.2,1,2.2,2.1,3.3,3.2c-4.7,8-8.6,16.5-12.5,24.9c-7,14.9-14.2,29.7-21.3,44.6c-7.3,15.4-14.7,30.8-22.1,46.1
	C663,245.7,662.5,247.4,661,248.4z"/>
<path class="st9" d="M171.1,944.2c-2.9-1.2-1.2-3-0.5-4.5c3.1-6.8,6.4-13.5,9.7-20.2c8.8-18.2,17.6-36.3,26.3-54.4
	c9.7-20.1,19.2-40.2,28.9-60.3c9.6-20.1,19.2-40.2,28.8-60.3c5-10.6,10-21.1,15-31.7c0.9-1.8,1.7-3.6,3.8-4.3c0.7,1,0.4,2.2,0.4,3.3
	c0,34.2,0,68.4,0,102.5c0,1,0.2,2-0.3,2.9c-7.5,8.6-14.9,17.3-22.5,25.9c-21.3,24.1-42.6,48.3-64,72.3c-7,7.8-14.1,15.5-21.2,23.2
	C174,940.4,172.6,942.3,171.1,944.2z"/>
<path class="st10" d="M439.9,178.8c-0.3-2.5,0.6-4.7,1.7-6.9c8.3-17.2,16.6-34.3,24.8-51.4c11.3-23.5,22.4-47.1,33.6-70.6
	c0.5-1,0.9-2.1,0.8-3.2c3.7-0.1,7.4-0.2,11.1-0.3c10.8,0.5,21.6,1.3,32.3,2.7c1.4,0.2,2.7,0.6,4.1,0.8c0.8,2.9-0.7,5.3-1.8,7.6
	c-8.1,16.3-15.7,32.9-23.6,49.2c-9.7,20.1-19.1,40.3-28.9,60.3c-0.7,1.4-1.2,2.9-2.4,4C474.1,171.8,456.9,174.4,439.9,178.8z"/>
<path class="st11" d="M677.3,97.2c-2.2,1-2.6,3.3-3.5,5.1c-9.5,19.8-19,39.6-28.4,59.4c-7.6,16-15.2,32-22.7,48.1
	c-0.3,0.6-0.4,1.3-0.6,2c-12.6-8.8-26-16.4-39.8-23c-2.7-1.8-0.8-3.8,0-5.5c5.1-10.9,10.2-21.7,15.4-32.5
	c11.6-23.7,22.6-47.7,34.4-71.3c0.8-1.7,1-4.3,3.9-4.3C650.4,81.2,664.2,88.5,677.3,97.2z"/>
<path class="st4" d="M491.6,170.9c-0.1-1.3,0.4-2.5,1-3.6c7.8-16.2,15.7-32.5,23.5-48.7c9.9-20.7,19.9-41.4,29.7-62.1
	c1-2.1,1.7-4.5,2.5-6.7c15.7,1.8,31,5.1,46,10c-0.4,2.8-1.7,5.4-3,7.9c-8.6,17.3-16.7,34.8-25.1,52.2c-8.1,16.8-16.2,33.5-24,50.4
	c-0.8,1.8-1.5,3.7-3.3,4.8C523.3,172.2,507.5,170.8,491.6,170.9z"/>
<path class="st12" d="M661,248.4c2.3-5.3,4.5-10.6,7-15.8c8.7-18.2,17.6-36.3,26.3-54.5c7.3-15.2,14.5-30.6,21.7-45.9
	c0.8-1.6,1.2-3.6,3.6-3.7c11,9,20.9,19.1,30.2,29.7c-14.4,28.9-28,58.1-41.9,87.2c-6,12.4-11.7,25-18.1,37.3
	c-0.8,1.6-1.6,3.4-3.3,4.3c-6.4-11.3-13-22.4-21-32.7C664,252.4,661.9,250.9,661,248.4z"/>
<path class="st9" d="M539,175.1c2.1-4.6,4-9.3,6.2-13.9c8.7-18.2,17.6-36.2,26.3-54.4c7-14.6,13.8-29.3,20.7-43.9
	c0.5-1.1,0.9-2.4,2.1-3.1c14.3,3.7,28.2,8.8,41.5,15.3c-3.9,5.1-6.1,11.1-8.9,16.7c-3.9,7.9-7.5,16.1-11.3,24.1
	c-8.7,18.2-17.6,36.3-26.3,54.4c-2.3,4.8-4.5,9.7-6.9,14.5c-0.6,1.3-1.4,2.5-0.3,3.9C568.2,183,553.8,178.3,539,175.1z"/>
<path class="st13" d="M799.8,231.2c-3.8,1.5-4.1,5.5-5.6,8.5c-4,7.9-7.5,16.1-11.3,24.1c-8.7,18.2-17.6,36.3-26.3,54.4
	c-12.9,26.9-25.8,53.9-38.7,80.8c-2.5,5.3-4.1,11.1-8.5,15.3c1.1-13.6,1.7-27.2,0.8-40.9c-0.4-6.4-1.2-12.9-1.8-19.3
	c3.2-7.7,7.1-15,10.7-22.5c11.8-24.2,23.3-48.5,34.9-72.8c7.5-15.6,15.2-31.1,22.3-46.9c1.1-2.4,2.2-4.9,3.9-7
	c0.9-1.1,1.7-2.9,3.7-1.7C789.9,212.1,795.2,221.5,799.8,231.2z"/>
<path class="st13" d="M649.2,539.9c0.2,3.1-1.4,5.7-2.7,8.4c-7.5,15.8-15.2,31.5-22.7,47.3c-13.3,27.7-26.6,55.4-39.9,83.1
	c-6.3,13.2-12.6,26.5-19,39.7c-1,2-1.9,4.1-2.2,6.3c-9.4,2.3-19,3.7-28.7,4.2c-3.9,0.4-4.5-0.1-3.2-3.4c2-5,4.4-9.8,6.8-14.6
	c11.8-24.1,23.1-48.4,34.8-72.5c9.2-18.9,18.1-38,27.2-56.9c0.9-1.8,1.8-3.5,3-5.1c13.6-8.5,26.8-17.5,38.4-28.6
	C643.7,545.1,646.5,542.5,649.2,539.9z"/>
<path class="st12" d="M475.5,729.7c-12-0.2-23.9-2.2-35.6-4.4c-3.1-1.9-1.3-4.2-0.4-6.3c3.3-7,6.7-14,10.1-21
	c11.9-24.2,23.1-48.7,35-72.8c2.7-5.6,5.3-11.2,8-16.8c1.2-2.6,2.9-4,5.8-3.9c12.3-0.3,24.4-1.5,36.5-3.4c1.8,2.2,0.6,4.3-0.4,6.3
	c-3.3,6.7-6.4,13.5-9.7,20.2c-11.8,24.2-23.3,48.6-34.9,72.9c-4.1,8.5-8.6,16.8-12.1,25.6C477.1,727.4,476.5,728.7,475.5,729.7z"/>
<path class="st14" d="M475.5,729.7c0.2-3.5,2.1-6.4,3.5-9.4c8.3-17.6,16.9-35,25.3-52.6c9.8-20.4,19.6-40.9,29.4-61.3
	c0.8-1.7,1.1-3.5,1-5.3c12.1-2.3,23.9-5.8,35.6-9.6c1.4,1.7,0.3,3.2-0.3,4.7c-4.8,10.7-9.9,21.2-15,31.7
	c-15.2,31.2-29.7,62.7-45.1,93.8c-1.5,3-2,6.5-4.8,8.8c-7.1,0.3-14.2,0.3-21.2-0.1c-2.5-0.8-5.2,0.3-7.6-0.7l-0.4,0L475.5,729.7z"/>
<path class="st14" d="M686.5,287.1c4.2-8.9,8.8-17.6,12.9-26.5c8.5-18.3,17.5-36.3,26.2-54.4c6.9-14.5,13.7-29,20.6-43.5
	c0.8-1.7,1.5-3.7,3.7-4.3c6.9,7.1,13.1,14.8,18.7,22.9c-7.6,14.6-14.5,29.6-21.6,44.5c-3.4,7.3-7,14.5-10.4,21.7
	c-10.7,22.5-21.4,45-32.4,67.4c-0.9,1.8-1.1,4.8-4.5,3.8C695.8,307.9,691.4,297.4,686.5,287.1z"/>
<path class="st6" d="M283.2,817.2c0-36.2-0.1-72.5-0.1-108.7c0-34.2,0-68.4,0-102.6c-1.9-2.2-1.3-4.8-1.3-7.3
	c0-29.5-0.2-58.9,0.1-88.4c-0.1-23.3-0.2-46.6,0.1-69.9c0.2-16.4,0-32.7,0.1-49.8c-7.1,14.5-13.8,28.5-20.4,42.6
	c-3.7,7.9-7.5,15.8-11.3,23.7c-14.9,30.8-29.5,61.6-44.3,92.4c-12.4,25.7-24.5,51.5-37,77.1c-1.1,2.2-1.6,5.4-5.3,5
	c0-9,0-18.1,0-27.1c3.3-1.6,3.7-5.1,5.1-7.9c4-7.9,7.5-16.1,11.3-24.1c8.8-18.3,17.7-36.5,26.5-54.8c9.7-20.1,19.2-40.2,28.8-60.2
	c9.4-19.6,18.7-39.2,28.1-58.7c6.8-14.1,13.5-28.2,20.3-42.3c0.7-1.4,1-3,2.6-3.7c-5.5,65.1-1.9,130.4-2.4,195.5
	c-0.7,88-0.2,175.9-0.2,263.9C283.8,813.7,284.4,815.6,283.2,817.2z"/>
<path class="st15" d="M699.8,318.6c2-0.1,2.4-1.8,3-3.1c14.1-29.3,28.2-58.7,42.3-88.1c7-14.6,13.8-29.3,20.7-44
	c0.6-1.2,1.2-2.2,2.8-2.2c5.7,7,10.8,14.3,15.2,22.1c-4.1,1.9-5.1,6.1-6.8,9.7c-4.2,8.5-8,17.1-12.1,25.6
	c-8.6,17.9-17.3,35.8-26,53.7c-9.3,19.3-18.5,38.7-27.7,58c-0.7,1.5-1.1,3.3-2.9,4C706.1,342.2,703.2,330.3,699.8,318.6z"/>
<path class="st8" d="M498.3,604.5c-2.2,0.5-3.5,1.7-4.5,3.8c-11.2,23.4-22.4,46.7-33.6,70c-6.6,13.7-13.1,27.4-19.7,41.1
	c-0.9,1.9-2.1,3.8-0.6,5.9c-4.4-0.8-8.8-1.7-13.3-2.5c-1.8-0.3-3-1-3-3.3c0.2-13,0.2-26,0.2-38.9c12.1-25.1,24.1-50.1,36-75.3
	c0.6-1.3,0.9-2.7,2.1-3.6C474,603.1,486.1,604.4,498.3,604.5z"/>
<path class="st15" d="M505.1,730.5c1.3-3.1,2.4-6.3,3.9-9.3c11.9-24.7,23.9-49.4,35.8-74.2c8.2-17.1,16.3-34.3,24.5-51.5
	c0.6-1.3,1.3-2.5,1.1-4c11-4.6,21.8-9.5,32.2-15.2c0.1,1.3-0.4,2.5-1,3.6c-8.2,17-16.5,34-24.6,51c-12.9,26.9-25.8,53.9-38.7,80.8
	c-2.2,4.6-4.3,9.2-6.4,13.8c-1.1,2.4-0.8,3.8,2.2,3.3C524.4,730.4,514.8,730.8,505.1,730.5z"/>
<path class="st16" d="M461.9,601.6c-0.4,4.2-2.8,7.7-4.5,11.3c-8.6,18.3-17.5,36.3-26.3,54.5c-1.5,3-2.8,6.2-4.2,9.2
	c-0.7,1.5-1.5,3.1-3.2,3.8c-0.1-28.8-0.1-57.6-0.2-86.3c0-1.7,0-3.2,2.5-2.3C437.8,596.3,449.9,598.9,461.9,601.6z"/>
<path class="st12" d="M476.3,729.7c2.5,0.3,5.2-0.7,7.6,0.7C481.3,730.3,478.7,730.8,476.3,729.7z"/>
<path class="st10" d="M283.1,510.1c0,31.9,0,63.9,0,95.8c-1.6,0.7-2,2.3-2.6,3.7c-13,27-25.9,54.1-38.9,81.2
	c-9.2,19.2-18.3,38.4-27.5,57.6c-13.1,27.4-26.3,54.9-39.4,82.3c-2.6,5.5-5.2,10.9-7.8,16.4c-0.7,1.4-1.2,3-3.1,3
	c0-31.6,0-63.3,0-94.9c13.5-27.2,26.3-54.6,39.4-82c6.9-14.4,13.7-28.8,20.7-43.1c18.1-37.3,35.6-74.9,53.9-112.2
	c0.8-1.6,1.3-3.5,2.2-5C280.5,511.5,281,509.8,283.1,510.1z"/>
<path class="st17" d="M283.1,510.1c-2.7,1.8-2.9,5-4.2,7.6c-8.1,16.6-16.1,33.2-24.1,49.9c-10.6,22.1-21.3,44.2-31.9,66.3
	c-9.3,19.4-18.6,38.9-27.9,58.4c-9.4,19.7-18.8,39.4-28.3,59.1c-0.7,1.4-0.9,3.4-3,3.7c0-24,0-48,0-72.1
	c14.7-30.5,29.3-61.1,43.8-91.7c6.2-13.1,12.5-26.2,18.8-39.3c17.4-36,34.4-72.1,51.8-108.1c1-2.1,1.5-5.1,4.9-5
	C283.1,462.7,283.1,486.4,283.1,510.1z"/>
<path class="st18" d="M283.1,438.9c-4.4,3.7-5.7,9.3-8.2,14.1c-4,7.9-7.5,16.1-11.3,24.1c-8.5,17.8-17.2,35.5-25.8,53.3
	c-13.2,27.4-26.3,54.9-39.5,82.4c-9.1,18.9-18.1,37.9-27.1,56.8c-1.5,3.2-2.9,6.4-4.4,9.6c-0.7,1.5-1.5,3.1-3.2,3.8
	c0-17.2,0-34.5,0-51.7c1.9-0.6,2.8-2.2,3.6-3.9c14.9-31,29.9-62,44.8-93c7.8-16.3,15.4-32.6,23.2-48.9
	c11.4-23.8,22.9-47.5,34.3-71.3c3.8-7.9,7.3-15.9,11.1-23.8c0.4-0.9,0.6-2.2,2.4-2.7C283.1,404.9,283.1,421.9,283.1,438.9z"/>
</svg>
